<svg xmlns="http://www.w3.org/2000/svg" xmlns:xlink="http://www.w3.org/1999/xlink" width="198.073" height="198.53" xmlns:v="https://vecta.io/nano"><defs><linearGradient id="A" x1="188.676" y1="679.273" x2="188.676" y2="587.33" gradientUnits="userSpaceOnUse"><stop offset="0" stop-color="#adadad"/><stop offset="1" stop-color="#dbdbdb"/></linearGradient><linearGradient xlink:href="#C" id="B" x1="181.201" y1="590.523" x2="226.671" y2="635.992"/><linearGradient id="C" gradientUnits="userSpaceOnUse"><stop offset="0" stop-color="#5a9fd4"/><stop offset="1" stop-color="#306998"/></linearGradient><linearGradient xlink:href="#E" id="D" x1="184.785" y1="675.87" x2="140.036" y2="631.121"/><linearGradient id="E" gradientUnits="userSpaceOnUse"><stop offset="0" stop-color="#ffd43b"/><stop offset="1" stop-color="#ffe873"/></linearGradient><linearGradient xlink:href="#C" id="F" x1="138.66" y1="644.168" x2="171.753" y2="677.262"/><linearGradient y2="588.502" x2="194.113" y1="621.705" x1="227.316" id="G" xlink:href="#E"/></defs><g transform="matrix(2.146861 0 0 2.146861 -293.655308 -1259.31844)"><rect ry="8.485" y="586.586" x="136.784" height="92.475" width="92.262" fill="url(#A)"/><path d="M178.056 586.771v39.156l11.875 11.969h39.094v-11.969h-39.156v-39.156h-11.812z" fill="url(#B)"/><path d="M136.9 627.927v11.969h39.156v39.156h11.813v-39.156l-11.875-11.969H136.9z" fill="url(#D)"/><path d="M136.9 642.423v11.938h24.863v24.646h11.75v-36.584z" fill="url(#F)"/><path d="M229.021 623.395v-11.937h-24.863v-24.646h-11.75v36.584z" fill="url(#G)"/></g></svg>