<svg xmlns="http://www.w3.org/2000/svg" xmlns:xlink="http://www.w3.org/1999/xlink" width="478.2" height="96.991" xmlns:v="https://vecta.io/nano"><defs><linearGradient id="A" x1="174.62" y1="281.192" x2="174.62" y2="189.25" gradientUnits="userSpaceOnUse"><stop offset="0" stop-color="#adadad"/><stop offset="1" stop-color="#dbdbdb"/></linearGradient><linearGradient xlink:href="#C" id="B" x1="167.145" y1="192.189" x2="212.614" y2="237.659"/><linearGradient id="C" gradientUnits="userSpaceOnUse"><stop offset="0" stop-color="#5a9fd4"/><stop offset="1" stop-color="#306998"/></linearGradient><linearGradient xlink:href="#E" id="D" x1="170.729" y1="277.536" x2="125.98" y2="232.788"/><linearGradient id="E" gradientUnits="userSpaceOnUse"><stop offset="0" stop-color="#ffd43b"/><stop offset="1" stop-color="#ffe873"/></linearGradient><linearGradient xlink:href="#C" id="F" x1="124.603" y1="246.088" x2="157.697" y2="279.181"/><linearGradient y2="190.421" x2="180.056" y1="223.624" x1="213.259" id="G" xlink:href="#E"/></defs><g transform="translate(287.671 -283.867)"><g transform="translate(-410.399 99.877)"><rect ry="8.485" y="188.505" x="122.727" height="92.475" width="92.262" fill="url(#A)"/><g transform="translate(0 .253)"><path d="M164 188.438v39.156l11.875 11.969h39.094v-11.969h-39.156v-39.156H164z" fill="url(#B)"/><path d="M122.844 229.594v11.969H162v39.156h11.813v-39.156l-11.875-11.969h-39.094z" fill="url(#D)"/></g><path d="M122.843 244.342v11.938h24.863v24.646h11.75v-36.584z" fill="url(#F)"/><path d="M214.965 225.314v-11.937h-24.863v-24.646h-11.75v36.584z" fill="url(#G)"/></g><text xml:space="preserve" x="-185.936" y="375.039" font-size="120" letter-spacing="0" word-spacing="0" fill="#000" font-family="NanumGothic"><tspan x="-185.936" y="375.039">Nuitka</tspan></text></g></svg>